<svg xmlns="http://www.w3.org/2000/svg" viewBox="0 0 439.39 439.39"><defs><style>.cls-1{fill:#00a99d;}</style></defs><title>TomoX 3</title><g id="Layer_2" data-name="Layer 2"><g id="Layer_2-2" data-name="Layer 2"><path class="cls-1" d="M325.72,347.42a165.81,165.81,0,0,0,57-93,10.66,10.66,0,0,0-10.45-12.87h-2.75a10.57,10.57,0,0,0-10.31,8.2,142.32,142.32,0,0,1-46.74,77.48,139.2,139.2,0,0,1-85.18,33.41,140.69,140.69,0,0,1-121.61-60.41c-28.33-40.6-33.12-91.52-13.15-139.7a129.85,129.85,0,0,1,69.84-69.77c33.84-14,69-15.9,101.69-5.52a142.06,142.06,0,0,1,74.5,56A10.55,10.55,0,0,0,353,144.25l1.62-1a11.34,11.34,0,0,0,3.39-16,166.63,166.63,0,0,0-82.39-63.4c-35.74-12.47-74.55-12.18-112.2.83a155.64,155.64,0,0,0-96.2,94.77C47.91,213.15,54.91,269.62,86.39,314.38a164.76,164.76,0,0,0,239.33,33Z"/><path class="cls-1" d="M423.77,138.33a219.7,219.7,0,0,0-414.95,143,11.69,11.69,0,0,0,6.46,7.36,12,12,0,0,0,10-.11l.19-.09a11.85,11.85,0,0,0,6.28-14.11A195.77,195.77,0,0,1,399.19,141.55a194,194,0,0,1,16.28,78.15c0,108-87.83,195.77-195.77,195.77a196,196,0,0,1-42.27-4.61A11.48,11.48,0,0,0,166,415a12.12,12.12,0,0,0-1.92,11.68,12,12,0,0,0,8.75,7.72,220.28,220.28,0,0,0,46.87,5q4,0,7.93-.14C341.4,435.18,434.31,343,439.18,229.32A218,218,0,0,0,423.77,138.33Z"/><path class="cls-1" d="M286.53,205.21a11,11,0,0,0,18.8-7.7l.16-38.46a16.84,16.84,0,0,0-28.75-12l-57.05,57.05-57-57.05a16.84,16.84,0,0,0-28.75,12l.16,38.44a11,11,0,1,0,22-.09l-.11-25.93,48.21,48.21L155.89,268V242.47a11,11,0,0,0-22,0v37.91a16.84,16.84,0,0,0,28.75,11.91l57-57.05,57.05,57.05a16.84,16.84,0,0,0,28.75-11.91V242.47a11,11,0,0,0-22,0V268L235.24,219.7l48.21-48.21-.11,25.93A10.93,10.93,0,0,0,286.53,205.21Z"/></g></g></svg>